{"title":"Naruto Shippuuden - 344 [720p] [ENG-SUBBED] [GWC].mkv","uid":9456828,"size":88116934,"categoryP":"video","categoryS":"tv_shows","magnet":"?xt=urn:btih:ef29d286e7bde59f91685caf161532c7797d1874&amp;dn=Naruto+Shippuuden+-+344+%5B720p%5D+%5BENG-SUBBED%5D+%5BGWC%5D.mkv&amp;tr=udp%3A%2F%2Ftracker.openbittorrent.com%3A80&amp;tr=udp%3A%2F%2Fopen.demonii.com%3A1337&amp;tr=udp%3A%2F%2Ftracker.coppersurfer.tk%3A6969&amp;tr=udp%3A%2F%2Fexodus.desync.com%3A6969","seeders":1,"leechers":0,"uploader":"canc232","files":1,"time":1389286340,"description":"Naruto Shippuuden - 344 [720p] [ENG-SUBBED] [GWC] \nNaruto Shippuuden Ep:344 - Obito and Madara\n\n\nTHUMBNAIL IMAGE ; &lt;a href=&quot;\nhttp://img14.imageshack.us/img14/2749/vw35.jpg&quot; rel=&quot;nofollow&quot; target=&quot;_NEW&quot;&gt;\nhttp://img14.imageshack.us/img14/2749/vw35.jpg&lt;/a&gt;\n\n\nMEDIA INFO :\nGeneral \nFormat : Matroska \nFile size : 84.0 MiB \nDuration : 21mn 40s \nOverall bit rate mode : Variable \nOverall bit rate : 542 Kbps \nWriting application : mkvmerge v6.6.0 ('The Edge Of The In Between')\n\nVideo \nFormat : AVC \nFormat profile : &lt;a class=&quot;__cf_email__&quot; href=&quot;/cdn-cgi/l/email-protection&quot; data-cfemail=&quot;f4bc9d939cb4b8c0dac5&quot;&gt;[email&amp;#160;protected]&lt;/a&gt;&lt;script cf-hash='f9e31' type=&quot;text/javascript&quot;&gt;\n/* &lt;![CDATA[ */!function(){try{var t=&quot;currentScript&quot;in document?document.currentScript:function(){for(var t=document.getElementsByTagName(&quot;script&quot;),e=t.length;e--;)if(t[e].getAttribute(&quot;cf-hash&quot;))return t[e]}();if(t&amp;&amp;t.previousSibling){var e,r,n,i,c=t.previousSibling,a=c.getAttribute(&quot;data-cfemail&quot;);if(a){for(e=&quot;&quot;,r=parseInt(a.substr(0,2),16),n=2;a.length-n;n+=2)i=parseInt(a.substr(n,2),16)^r,e+=String.fromCharCode(i);e=document.createTextNode(e),c.parentNode.replaceChild(e,c)}}}catch(u){}}();/* ]]&gt; */&lt;/script&gt; \nFormat settings, CABAC : Yes \nFormat settings, ReFrames : 11 frames\nDuration : 21mn 40s \nBit rate : 475 Kbps \nWidth : 1 280 pixels \nHeight : 720 pixels \nDisplay aspect ratio : 16:9 \nFrame rate : 23.976 fps \nStream size : 73.7 MiB \nTitle : Naruto Shippuuden - 344 [720p] [ENG-SUBBED] [GWC] \nWriting library : x264 core\nDefault : Yes \nForced : No \n\nAudio \nFormat : Vorbis \nDuration : 21mn 40s \nBit rate mode : Variable \nChannel(s) : 2 channels \nSampling rate : 44.1 KHz \nStream size : 8.68 MiB \nWriting library : aoTuV 20110424\n\nText \nFormat : UTF-8 \nCodec ID : S_TEXT/UTF8 \nTitle : [GWC] \nLanguage : English ","torrent":{"xt":"urn:btih:ef29d286e7bde59f91685caf161532c7797d1874","amp;dn":"Naruto+Shippuuden+-+344+%5B720p%5D+%5BENG-SUBBED%5D+%5BGWC%5D.mkv","amp;tr":["udp%3A%2F%2Ftracker.openbittorrent.com%3A80","udp%3A%2F%2Fopen.demonii.com%3A1337","udp%3A%2F%2Ftracker.coppersurfer.tk%3A6969","udp%3A%2F%2Fexodus.desync.com%3A6969"],"infoHash":"ef29d286e7bde59f91685caf161532c7797d1874","infoHashBuffer":{"type":"Buffer","data":[239,41,210,134,231,189,229,159,145,104,92,175,22,21,50,199,121,125,24,116]},"announce":[],"urlList":[]}}